<svg xmlns="http://www.w3.org/2000/svg" width="238.39999999999998" height="35" viewBox="0 0 238.39999999999998 35"><rect class="svg__rect" x="0" y="0" width="108.05" height="35" fill="#31C4F3"/><rect class="svg__rect" x="106.05" y="0" width="132.35" height="35" fill="#389AD5"/><path class="svg__text" d="M17.33 22L14.22 22L14.22 13.47L17.14 13.47Q18.59 13.47 19.34 14.05Q20.10 14.63 20.10 15.78L20.10 15.78Q20.10 16.36 19.78 16.83Q19.47 17.30 18.86 17.56L18.86 17.56Q19.55 17.75 19.93 18.26Q20.31 18.78 20.31 19.51L20.31 19.51Q20.31 20.71 19.53 21.36Q18.76 22 17.33 22L17.33 22ZM15.70 18.15L15.70 20.82L17.35 20.82Q18.04 20.82 18.44 20.47Q18.83 20.13 18.83 19.51L18.83 19.51Q18.83 18.18 17.47 18.15L17.47 18.15L15.70 18.15ZM15.70 14.66L15.70 17.06L17.15 17.06Q17.84 17.06 18.23 16.75Q18.62 16.43 18.62 15.86L18.62 15.86Q18.62 15.23 18.26 14.95Q17.90 14.66 17.14 14.66L17.14 14.66L15.70 14.66ZM24.64 19.16L24.64 19.16L24.64 13.47L26.12 13.47L26.12 19.18Q26.12 20.03 26.55 20.48Q26.98 20.93 27.83 20.93L27.83 20.93Q29.54 20.93 29.54 19.13L29.54 19.13L29.54 13.47L31.02 13.47L31.02 19.17Q31.02 20.53 30.15 21.32Q29.28 22.12 27.83 22.12L27.83 22.12Q26.36 22.12 25.50 21.33Q24.64 20.55 24.64 19.16ZM37.15 22L35.67 22L35.67 13.47L37.15 13.47L37.15 22ZM47.32 22L41.96 22L41.96 13.47L43.44 13.47L43.44 20.82L47.32 20.82L47.32 22ZM53.12 14.66L50.49 14.66L50.49 13.47L57.25 13.47L57.25 14.66L54.59 14.66L54.59 22L53.12 22L53.12 14.66ZM68.47 22L66.99 22L66.99 13.47L72.41 13.47L72.41 14.66L68.47 14.66L68.47 17.20L71.90 17.20L71.90 18.38L68.47 18.38L68.47 22ZM76.30 18.00L76.30 18.00L76.30 17.52Q76.30 16.28 76.74 15.32Q77.18 14.37 77.99 13.86Q78.79 13.35 79.84 13.35Q80.88 13.35 81.68 13.85Q82.49 14.35 82.93 15.29Q83.37 16.23 83.38 17.48L83.38 17.48L83.38 17.96Q83.38 19.21 82.94 20.16Q82.51 21.10 81.70 21.61Q80.90 22.12 79.85 22.12L79.85 22.12Q78.81 22.12 78.00 21.61Q77.19 21.10 76.75 20.17Q76.30 19.23 76.30 18.00ZM77.78 17.46L77.78 17.96Q77.78 19.36 78.33 20.13Q78.88 20.90 79.85 20.90L79.85 20.90Q80.83 20.90 81.36 20.15Q81.89 19.40 81.89 17.96L81.89 17.96L81.89 17.51Q81.89 16.09 81.36 15.34Q80.82 14.58 79.84 14.58L79.84 14.58Q78.88 14.58 78.33 15.33Q77.79 16.09 77.78 17.46L77.78 17.46ZM89.32 22L87.84 22L87.84 13.47L90.84 13.47Q92.32 13.47 93.12 14.13Q93.92 14.79 93.92 16.05L93.92 16.05Q93.92 16.90 93.51 17.48Q93.10 18.06 92.36 18.37L92.36 18.37L94.27 21.92L94.27 22L92.69 22L90.97 18.71L89.32 18.71L89.32 22ZM89.32 14.66L89.32 17.52L90.85 17.52Q91.60 17.52 92.02 17.15Q92.44 16.77 92.44 16.11L92.44 16.11Q92.44 15.43 92.05 15.05Q91.66 14.68 90.89 14.66L90.89 14.66L89.32 14.66Z" fill="#FFFFFF"/><path class="svg__text" d="M119.65 21.24L119.65 21.24L120.43 19.49Q120.99 19.86 121.74 20.09Q122.48 20.32 123.20 20.32L123.20 20.32Q124.57 20.32 124.57 19.64L124.57 19.64Q124.57 19.28 124.18 19.11Q123.79 18.93 122.93 18.74L122.93 18.74Q121.98 18.53 121.34 18.30Q120.71 18.06 120.25 17.55Q119.80 17.03 119.80 16.16L119.80 16.16Q119.80 15.39 120.22 14.77Q120.64 14.15 121.47 13.79Q122.31 13.43 123.51 13.43L123.51 13.43Q124.34 13.43 125.15 13.62Q125.95 13.80 126.57 14.17L126.57 14.17L125.83 15.93Q124.63 15.28 123.50 15.28L123.50 15.28Q122.79 15.28 122.47 15.49Q122.15 15.70 122.15 16.04L122.15 16.04Q122.15 16.37 122.53 16.54Q122.92 16.71 123.77 16.89L123.77 16.89Q124.73 17.10 125.36 17.33Q125.99 17.56 126.45 18.07Q126.91 18.58 126.91 19.46L126.91 19.46Q126.91 20.21 126.49 20.83Q126.07 21.44 125.23 21.80Q124.39 22.17 123.19 22.17L123.19 22.17Q122.17 22.17 121.21 21.92Q120.25 21.67 119.65 21.24ZM133.84 22L131.49 22L131.49 13.60L133.84 13.60L133.84 17.09L137.10 13.60L139.71 13.60L136.28 17.32L139.89 22L137.13 22L134.73 18.95L133.84 19.90L133.84 22ZM146.38 22L144.00 22L144.00 13.60L146.38 13.60L146.38 22ZM157.94 22L151.55 22L151.55 13.60L153.93 13.60L153.93 20.11L157.94 20.11L157.94 22ZM168.74 22L162.36 22L162.36 13.60L164.73 13.60L164.73 20.11L168.74 20.11L168.74 22ZM179.90 22L173.16 22L173.16 13.60L179.75 13.60L179.75 15.44L175.52 15.44L175.52 16.85L179.25 16.85L179.25 18.63L175.52 18.63L175.52 20.17L179.90 20.17L179.90 22ZM187.09 22L184.71 22L184.71 13.60L188.55 13.60Q189.69 13.60 190.53 13.98Q191.37 14.35 191.83 15.06Q192.28 15.76 192.28 16.71L192.28 16.71Q192.28 17.62 191.86 18.30Q191.43 18.98 190.64 19.36L190.64 19.36L192.45 22L189.91 22L188.38 19.77L187.09 19.77L187.09 22ZM187.09 15.47L187.09 17.93L188.41 17.93Q189.14 17.93 189.51 17.61Q189.88 17.29 189.88 16.71L189.88 16.71Q189.88 16.12 189.51 15.79Q189.14 15.47 188.41 15.47L188.41 15.47L187.09 15.47ZM199.45 22L197.07 22L197.07 13.60L199.45 13.60L199.45 22ZM204.20 17.80L204.20 17.80Q204.20 16.55 204.80 15.55Q205.40 14.56 206.47 14.00Q207.53 13.43 208.86 13.43L208.86 13.43Q210.19 13.43 211.25 14.00Q212.32 14.56 212.92 15.55Q213.53 16.55 213.53 17.80L213.53 17.80Q213.53 19.05 212.92 20.04Q212.32 21.04 211.26 21.60Q210.20 22.17 208.86 22.17L208.86 22.17Q207.53 22.17 206.47 21.60Q205.40 21.04 204.80 20.04Q204.20 19.05 204.20 17.80ZM206.59 17.80L206.59 17.80Q206.59 18.51 206.90 19.05Q207.20 19.60 207.71 19.90Q208.23 20.20 208.86 20.20L208.86 20.20Q209.50 20.20 210.02 19.90Q210.53 19.60 210.83 19.05Q211.13 18.51 211.13 17.80L211.13 17.80Q211.13 17.09 210.83 16.54Q210.53 16 210.02 15.70Q209.50 15.40 208.86 15.40L208.86 15.40Q208.22 15.40 207.71 15.70Q207.20 16 206.90 16.54Q206.59 17.09 206.59 17.80ZM220.64 22L218.26 22L218.26 13.60L222.10 13.60Q223.25 13.60 224.08 13.98Q224.92 14.35 225.38 15.06Q225.84 15.76 225.84 16.71L225.84 16.71Q225.84 17.62 225.41 18.30Q224.98 18.98 224.19 19.36L224.19 19.36L226.00 22L223.46 22L221.93 19.77L220.64 19.77L220.64 22ZM220.64 15.47L220.64 17.93L221.96 17.93Q222.69 17.93 223.06 17.61Q223.43 17.29 223.43 16.71L223.43 16.71Q223.43 16.12 223.06 15.79Q222.69 15.47 221.96 15.47L221.96 15.47L220.64 15.47Z" fill="#FFFFFF" x="119.05"/></svg>